<?xml version="1.0" standalone="no"?>
<!DOCTYPE svg PUBLIC "-//W3C//DTD SVG 20010904//EN"
 "http://www.w3.org/TR/2001/REC-SVG-20010904/DTD/svg10.dtd">
<svg version="1.0" xmlns="http://www.w3.org/2000/svg"
 width="310.000000pt" height="123.000000pt" viewBox="0 0 310.000000 123.000000"
 preserveAspectRatio="xMidYMid meet">

<g transform="translate(0.000000,123.000000) scale(0.100000,-0.100000)"
fill="#000000" stroke="none">
<path fill='white' d="M933 926 c-47 -47 -90 -86 -97 -86 -6 0 -34 23 -61 51 -124 127 -237
119 -355 -26 -33 -40 -83 -89 -111 -110 -61 -44 -56 -56 26 -63 55 -4 58 -3
96 34 21 21 39 33 39 26 0 -6 -16 -27 -34 -46 -40 -39 -34 -46 40 -46 41 0 47
3 76 45 17 25 34 42 37 40 2 -3 -10 -25 -27 -50 l-31 -45 26 -6 c16 -4 36 -1
54 10 21 12 39 15 66 10 34 -6 35 -8 17 -22 -37 -28 -110 -55 -164 -61 l-55
-6 0 -53 0 -54 37 6 c23 4 38 2 38 -4 0 -5 -20 -10 -45 -10 -43 0 -45 -1 -45
-28 0 -21 7 -32 24 -40 14 -6 26 -22 30 -43 l6 -32 32 41 c42 55 50 44 10 -12
l-32 -44 28 -7 c15 -3 39 -18 54 -32 34 -33 58 -25 58 19 0 18 5 40 11 48 8
11 9 4 4 -29 -5 -38 -4 -42 9 -32 9 7 37 11 72 9 l58 -3 2 56 c2 64 35 186 41
154 19 -93 52 -115 73 -47 7 20 17 42 23 47 7 7 8 4 3 -9 -28 -80 -25 -148 7
-168 18 -11 47 11 47 35 0 29 20 100 26 94 3 -3 -2 -42 -11 -88 l-16 -84 33
-27 c18 -16 35 -28 39 -28 3 0 9 32 13 71 3 39 11 79 17 88 8 12 9 8 4 -19
-22 -128 -15 -190 20 -190 11 0 15 11 15 39 0 46 42 196 70 251 26 52 27 134
1 176 -13 21 -35 37 -68 49 -90 33 -133 54 -133 64 0 6 20 39 45 74 65 93 78
147 35 147 -12 0 -20 8 -22 23 -2 17 -11 23 -37 25 -31 3 -41 -4 -118 -82z
m102 -10 c0 -22 -14 -29 -34 -17 -19 12 -6 43 16 39 10 -2 18 -12 18 -22z
m-272 -136 c-6 -32 12 -41 35 -18 15 15 24 6 16 -15 -12 -31 -66 -32 -78 -2
-7 19 13 77 25 70 4 -3 6 -19 2 -35z m173 -40 c-4 -23 -2 -32 11 -37 9 -4 19
-1 21 5 2 7 10 12 18 12 12 0 12 -4 4 -20 -16 -30 -68 -27 -76 4 -5 23 9 66
23 66 3 0 3 -14 -1 -30z m-82 -85 c-5 -28 -3 -35 9 -35 9 0 19 5 22 10 9 15
25 12 25 -5 0 -16 -42 -30 -65 -21 -23 8 -17 86 7 86 5 0 6 -15 2 -35z m-104
-31 c0 -3 -4 -13 -9 -23 -6 -10 -6 -23 -1 -31 7 -12 12 -11 28 4 24 21 39 5
16 -18 -19 -20 -48 -21 -64 -1 -15 18 -4 75 16 75 8 0 14 -3 14 -6z m380 -43
c-5 -11 -15 -32 -20 -47 -6 -15 -13 -24 -16 -22 -7 8 27 88 37 88 6 0 5 -8 -1
-19z m-140 -35 c0 -3 -4 -8 -10 -11 -5 -3 -10 -1 -10 4 0 6 5 11 10 11 6 0 10
-2 10 -4z m-254 -66 c-4 -23 -2 -32 11 -37 9 -4 19 -1 21 5 2 7 10 12 18 12
12 0 12 -4 4 -20 -16 -30 -68 -27 -76 4 -5 23 9 66 23 66 3 0 3 -14 -1 -30z
m-110 -67 c-10 -10 -19 5 -10 18 6 11 8 11 12 0 2 -7 1 -15 -2 -18z"/>
<path fill='white' d="M1925 771 c-54 -24 -80 -72 -73 -136 14 -118 162 -161 246 -71 59 65
39 170 -41 207 -52 23 -81 23 -132 0z m106 -69 c25 -21 30 -71 9 -96 -19 -24
-87 -21 -100 3 -18 34 -12 78 12 95 29 21 51 20 79 -2z"/>
<path fill='white' d="M1600 650 l0 -130 35 0 c33 0 35 2 35 35 0 25 5 35 15 35 9 0 23 -16
32 -35 15 -32 20 -35 60 -35 l43 0 -22 45 c-21 44 -21 45 -3 65 31 34 26 96
-8 126 -25 21 -38 24 -108 24 l-79 0 0 -130z m139 46 c4 -22 -23 -46 -51 -46
-14 0 -18 8 -18 36 0 34 1 35 32 32 23 -2 34 -9 37 -22z"/>
<path fill='white' d="M2179 703 c73 -197 62 -178 106 -178 l39 0 47 125 47 125 -35 3 c-20
2 -39 0 -43 -5 -4 -4 -18 -39 -30 -77 l-23 -70 -27 75 -27 74 -42 3 -41 3 29
-78z"/>
<path fill='white' d="M2478 657 c-27 -68 -48 -126 -48 -130 0 -4 17 -7 39 -7 30 0 40 4 44
20 4 16 14 20 50 20 37 0 47 -4 52 -20 5 -16 15 -20 46 -20 47 0 48 -13 -14
145 l-44 110 -39 3 -39 3 -47 -124z m111 -39 c1 -5 -10 -8 -24 -8 -28 0 -30 4
-13 51 l11 33 13 -34 c7 -19 13 -38 13 -42z"/>
</g>
</svg>
